<svg width="40" height="37" viewBox="0 0 40 37" fill="none" xmlns="http://www.w3.org/2000/svg">
<path d="M39.6067 1.5625C39.6067 1.1481 39.4421 0.750671 39.149 0.457646C38.856 0.16462 38.4586 0 38.0442 0C37.6298 0 37.2323 0.16462 36.9393 0.457646C36.6463 0.750671 36.4817 1.1481 36.4817 1.5625V8.64583C34.0775 5.75417 30.9608 3.30625 27.0483 2.09375C22.1198 0.553873 16.8195 0.694571 11.9796 2.49375C7.15459 4.28958 2.59625 7.93125 0.217088 12.2708C0.110577 12.4512 0.0414166 12.6511 0.0137198 12.8588C-0.0139771 13.0664 0.000354807 13.2775 0.0558632 13.4794C0.111372 13.6814 0.206923 13.8702 0.336838 14.0345C0.466752 14.1988 0.628377 14.3353 0.812104 14.4359C0.995831 14.5365 1.19791 14.5991 1.40632 14.62C1.61474 14.641 1.82523 14.6198 2.0253 14.5577C2.22536 14.4957 2.41091 14.3941 2.57091 14.2589C2.73091 14.1237 2.8621 13.9577 2.95667 13.7708C4.92334 10.1833 8.84209 6.99583 13.0692 5.42292C17.2622 3.86445 21.8541 3.74353 26.1233 5.07917C29.6692 6.17708 32.5213 8.54583 34.7275 11.4583H26.5858C26.1714 11.4583 25.774 11.623 25.481 11.916C25.188 12.209 25.0233 12.6064 25.0233 13.0208C25.0233 13.4352 25.188 13.8327 25.481 14.1257C25.774 14.4187 26.1714 14.5833 26.5858 14.5833H38.0442C38.4586 14.5833 38.856 14.4187 39.149 14.1257C39.4421 13.8327 39.6067 13.4352 39.6067 13.0208V1.5625ZM11.4817 22.9167C11.2054 22.9167 10.9405 23.0264 10.7451 23.2218C10.5498 23.4171 10.44 23.6821 10.44 23.9583V32.2917C10.44 32.5679 10.5498 32.8329 10.7451 33.0282C10.9405 33.2236 11.2054 33.3333 11.4817 33.3333H28.1483C28.4246 33.3333 28.6896 33.2236 28.8849 33.0282C29.0803 32.8329 29.19 32.5679 29.19 32.2917V23.9583C29.19 23.6821 29.0803 23.4171 28.8849 23.2218C28.6896 23.0264 28.4246 22.9167 28.1483 22.9167H11.4817ZM7.31501 23.9583C7.31501 22.8533 7.75399 21.7935 8.53539 21.0121C9.31679 20.2307 10.3766 19.7917 11.4817 19.7917H28.1483C29.2534 19.7917 30.3132 20.2307 31.0946 21.0121C31.876 21.7935 32.315 22.8533 32.315 23.9583V32.2917C32.315 33.3967 31.876 34.4565 31.0946 35.2379C30.3132 36.0193 29.2534 36.4583 28.1483 36.4583H11.4817C10.3766 36.4583 9.31679 36.0193 8.53539 35.2379C7.75399 34.4565 7.31501 33.3967 7.31501 32.2917V23.9583Z" fill="#000000"/>
</svg>
