<svg width="200" height="200" viewBox="0 0 200 200" fill="none" xmlns="http://www.w3.org/2000/svg">
<path d="M0 0H200V200H0V0Z" fill="#3E379B"/>
<path d="M91.0504 98.4972L92.9302 81.0732H92.1783L86.7894 95.1127L68.1163 127.83H62.602L42.9263 94.9873L37.4121 81.0732H36.7855L39.292 98.3718V144H23V56.2535H38.6654L62.1008 96.3662L66.2364 106.394H66.7377L70.4974 96.1155L92.6796 56.2535H108.22V144H91.0504V98.4972Z" fill="white"/>
<path d="M116.968 57.131C120.477 56.4624 124.32 55.961 128.497 55.6268C132.758 55.2089 136.978 55 141.155 55C145.5 55 149.844 55.3761 154.189 56.1282C158.617 56.7967 162.585 58.2174 166.094 60.3901C169.603 62.4793 172.444 65.446 174.616 69.2901C176.872 73.0507 178 77.9812 178 84.0817C178 89.5972 177.039 94.277 175.118 98.1211C173.196 101.882 170.648 104.974 167.473 107.397C164.298 109.821 160.664 111.576 156.57 112.662C152.559 113.748 148.382 114.292 144.037 114.292C143.62 114.292 142.951 114.292 142.032 114.292C141.113 114.292 140.152 114.292 139.15 114.292C138.147 114.208 137.145 114.124 136.142 114.041C135.223 113.957 134.555 113.874 134.137 113.79V144H116.968V57.131ZM142.534 69.7916C140.863 69.7916 139.275 69.8751 137.771 70.0423C136.267 70.1258 135.056 70.2512 134.137 70.4183V98.8732C134.471 98.9568 134.972 99.0404 135.641 99.1239C136.309 99.2075 137.019 99.2911 137.771 99.3746C138.523 99.3746 139.233 99.3746 139.902 99.3746C140.654 99.3746 141.197 99.3746 141.531 99.3746C143.787 99.3746 146.001 99.1657 148.173 98.7479C150.429 98.33 152.434 97.5779 154.189 96.4916C155.943 95.3216 157.322 93.7338 158.324 91.7282C159.41 89.7225 159.953 87.0901 159.953 83.831C159.953 81.0732 159.452 78.8169 158.45 77.062C157.447 75.2235 156.11 73.761 154.439 72.6747C152.852 71.5883 151.014 70.8362 148.925 70.4183C146.836 70.0005 144.706 69.7916 142.534 69.7916Z" fill="white"/>
</svg>
