<?xml version="1.0" encoding="utf-8"?>
<!-- Generator: Adobe Illustrator 26.0.2, SVG Export Plug-In . SVG Version: 6.00 Build 0)  -->
<svg version="1.1" id="Layer_1" xmlns="http://www.w3.org/2000/svg" xmlns:xlink="http://www.w3.org/1999/xlink" x="0px" y="0px"
	 viewBox="0 0 512 240.56" style="enable-background:new 0 0 512 240.56;" xml:space="preserve">
<style type="text/css">
	.st0{fill:#2A2F7D;}
	.st1{font-family:'HelveticaNeue-CondensedBold';}
	.st2{font-size:70.7126px;}
</style>
<g>
	<path class="st0" d="M112.84,199.84c-44.26-1.71-79.61-38.13-79.61-82.8s35.35-81.09,79.61-82.8V5.5
		C52.72,7.23,4.52,56.5,4.52,117.04s48.21,109.81,108.32,111.54V199.84z"/>
	<g>
		<polygon class="st0" points="158.96,222.1 131.55,228.62 131.55,4.58 158.96,4.58 		"/>
		<rect x="131.55" y="199.91" class="st0" width="82.22" height="28.71"/>
	</g>
	<path class="st0" d="M112.84,149.5c-2.18,0.45-4.43,0.69-6.74,0.69c-18.31,0-33.15-14.84-33.15-33.15s14.84-33.15,33.15-33.15
		c2.31,0,4.57,0.24,6.74,0.69V61.82c-2.63-0.38-5.31-0.58-8.05-0.58C73.98,61.24,49,86.22,49,117.04s24.98,55.79,55.79,55.79
		c2.73,0,5.42-0.2,8.05-0.58V149.5z"/>
</g>
<text transform="matrix(1 0 0 1 229.8452 55.4866)"><tspan x="0" y="0" class="st0 st1 st2">Center for </tspan><tspan x="0" y="84.86" class="st0 st1 st2">Collective </tspan><tspan x="0" y="169.71" class="st0 st1 st2">Learning</tspan></text>
</svg>
