<svg width="243" height="47" viewBox="0 0 243 47" fill="none" xmlns="http://www.w3.org/2000/svg">
<path d="M0.839996 1.2C1.736 1.072 2.73866 0.965332 3.848 0.879997C5 0.794665 6.17333 0.730666 7.368 0.688C8.56266 0.645331 9.71466 0.623997 10.824 0.623997C11.976 0.581331 13 0.559998 13.896 0.559998C17.864 0.559998 21.256 1.11466 24.072 2.224C26.888 3.33333 29.1707 4.89066 30.92 6.896C32.6693 8.90133 33.9493 11.2907 34.76 14.064C35.5707 16.8373 35.976 19.888 35.976 23.216C35.976 26.2453 35.592 29.168 34.824 31.984C34.056 34.8 32.776 37.296 30.984 39.472C29.192 41.648 26.824 43.3973 23.88 44.72C20.9787 46.0427 17.3733 46.704 13.064 46.704C12.3813 46.704 11.464 46.6827 10.312 46.64C9.20266 46.5973 8.02933 46.5333 6.792 46.448C5.59733 46.4053 4.44533 46.3413 3.336 46.256C2.22666 46.2133 1.39466 46.1493 0.839996 46.064V1.2ZM14.6 8.368C13.6613 8.368 12.7013 8.38933 11.72 8.432C10.7813 8.47467 10.0773 8.53866 9.608 8.624V38.64C9.77866 38.6827 10.056 38.7253 10.44 38.768C10.8667 38.768 11.3147 38.7893 11.784 38.832C12.2533 38.832 12.7013 38.8533 13.128 38.896C13.5547 38.896 13.8747 38.896 14.088 38.896C16.5627 38.896 18.6107 38.4693 20.232 37.616C21.896 36.72 23.1973 35.5467 24.136 34.096C25.1173 32.6453 25.8 30.9813 26.184 29.104C26.568 27.184 26.76 25.2213 26.76 23.216C26.76 21.4667 26.5893 19.7173 26.248 17.968C25.9067 16.176 25.2667 14.576 24.328 13.168C23.432 11.76 22.1947 10.608 20.616 9.712C19.0373 8.816 17.032 8.368 14.6 8.368Z" fill="white"/>
<path d="M35.107 4.784C35.107 3.54666 35.5123 2.544 36.323 1.776C37.1763 1.008 38.243 0.623997 39.523 0.623997C41.059 0.623997 42.275 1.136 43.171 2.16C44.067 3.184 44.515 4.528 44.515 6.192C44.515 7.89867 44.2377 9.34933 43.683 10.544C43.171 11.7387 42.531 12.7413 41.763 13.552C41.0377 14.32 40.2483 14.9387 39.395 15.408C38.5843 15.8347 37.9017 16.1547 37.347 16.368L35.235 12.848C36.0883 12.464 36.835 11.952 37.475 11.312C38.1577 10.672 38.5417 9.86133 38.627 8.88C37.7737 8.92266 36.963 8.60266 36.195 7.92C35.4697 7.19466 35.107 6.14933 35.107 4.784Z" fill="white"/>
<path d="M42.4935 15.856C44.2002 15.088 46.2268 14.4907 48.5735 14.064C50.9202 13.5947 53.3735 13.36 55.9335 13.36C58.1522 13.36 60.0082 13.6373 61.5015 14.192C62.9948 14.704 64.1682 15.4507 65.0215 16.432C65.9175 17.4133 66.5362 18.5867 66.8775 19.952C67.2615 21.3173 67.4535 22.8533 67.4535 24.56C67.4535 26.4373 67.3895 28.336 67.2615 30.256C67.1335 32.1333 67.0482 33.9893 67.0055 35.824C67.0055 37.6587 67.0695 39.4507 67.1975 41.2C67.3255 42.9067 67.6455 44.528 68.1575 46.064H61.3735L60.0295 41.648H59.7095C58.8562 42.9707 57.6615 44.1227 56.1255 45.104C54.6322 46.0427 52.6908 46.512 50.3015 46.512C48.8082 46.512 47.4642 46.2987 46.2695 45.872C45.0748 45.4027 44.0508 44.7627 43.1975 43.952C42.3442 43.0987 41.6828 42.1173 41.2135 41.008C40.7442 39.856 40.5095 38.576 40.5095 37.168C40.5095 35.2053 40.9362 33.5627 41.7895 32.24C42.6855 30.8747 43.9442 29.7867 45.5655 28.976C47.2295 28.1227 49.1922 27.5467 51.4535 27.248C53.7575 26.9067 56.3175 26.8 59.1335 26.928C59.4322 24.5387 59.2615 22.832 58.6215 21.808C57.9815 20.7413 56.5522 20.208 54.3335 20.208C52.6695 20.208 50.8988 20.3787 49.0215 20.72C47.1868 21.0613 45.6722 21.5093 44.4775 22.064L42.4935 15.856ZM53.0535 39.664C54.7175 39.664 56.0402 39.3013 57.0215 38.576C58.0028 37.808 58.7282 36.9973 59.1975 36.144V31.984C57.8748 31.856 56.5948 31.8347 55.3575 31.92C54.1628 32.0053 53.0962 32.1973 52.1575 32.496C51.2188 32.7947 50.4722 33.2213 49.9175 33.776C49.3628 34.3307 49.0855 35.0347 49.0855 35.888C49.0855 37.0827 49.4268 38.0213 50.1095 38.704C50.8348 39.344 51.8162 39.664 53.0535 39.664Z" fill="white"/>
<path d="M93.8915 44.016C92.6115 44.9547 91.0542 45.6587 89.2195 46.128C87.4275 46.64 85.5715 46.896 83.6515 46.896C81.0915 46.896 78.9155 46.4907 77.1235 45.68C75.3742 44.8693 73.9448 43.7387 72.8355 42.288C71.7262 40.7947 70.9155 39.0027 70.4035 36.912C69.9342 34.8213 69.6995 32.5173 69.6995 30C69.6995 24.5813 70.9155 20.4213 73.3475 17.52C75.7795 14.576 79.3208 13.104 83.9715 13.104C86.3182 13.104 88.1955 13.296 89.6035 13.68C91.0542 14.064 92.3555 14.5547 93.5075 15.152L91.5235 21.936C90.5422 21.4667 89.5608 21.104 88.5795 20.848C87.6408 20.592 86.5528 20.464 85.3155 20.464C83.0115 20.464 81.2622 21.232 80.0675 22.768C78.8728 24.2613 78.2755 26.672 78.2755 30C78.2755 31.3653 78.4248 32.624 78.7235 33.776C79.0222 34.928 79.4702 35.9307 80.0675 36.784C80.6648 37.6373 81.4328 38.32 82.3715 38.832C83.3528 39.3013 84.4835 39.536 85.7635 39.536C87.1715 39.536 88.3662 39.3653 89.3475 39.024C90.3288 38.64 91.2035 38.192 91.9715 37.68L93.8915 44.016Z" fill="white"/>
<path d="M117.316 44.016C116.036 44.9547 114.479 45.6587 112.645 46.128C110.852 46.64 108.996 46.896 107.076 46.896C104.516 46.896 102.34 46.4907 100.548 45.68C98.7992 44.8693 97.3698 43.7387 96.2605 42.288C95.1512 40.7947 94.3405 39.0027 93.8285 36.912C93.3592 34.8213 93.1245 32.5173 93.1245 30C93.1245 24.5813 94.3405 20.4213 96.7725 17.52C99.2045 14.576 102.746 13.104 107.396 13.104C109.743 13.104 111.62 13.296 113.028 13.68C114.479 14.064 115.78 14.5547 116.932 15.152L114.949 21.936C113.967 21.4667 112.986 21.104 112.005 20.848C111.066 20.592 109.978 20.464 108.74 20.464C106.436 20.464 104.687 21.232 103.492 22.768C102.298 24.2613 101.701 26.672 101.701 30C101.701 31.3653 101.85 32.624 102.148 33.776C102.447 34.928 102.895 35.9307 103.492 36.784C104.09 37.6373 104.858 38.32 105.796 38.832C106.778 39.3013 107.908 39.536 109.188 39.536C110.596 39.536 111.791 39.3653 112.772 39.024C113.754 38.64 114.628 38.192 115.396 37.68L117.316 44.016Z" fill="white"/>
<path d="M116.549 30C116.549 24.5813 117.872 20.4213 120.518 17.52C123.163 14.576 126.875 13.104 131.654 13.104C134.214 13.104 136.432 13.5093 138.31 14.32C140.187 15.1307 141.744 16.2827 142.982 17.776C144.219 19.2267 145.136 20.9973 145.734 23.088C146.374 25.1787 146.693 27.4827 146.693 30C146.693 35.4187 145.371 39.6 142.725 42.544C140.123 45.4453 136.432 46.896 131.654 46.896C129.094 46.896 126.875 46.4907 124.997 45.68C123.12 44.8693 121.541 43.7387 120.261 42.288C119.024 40.7947 118.085 39.0027 117.445 36.912C116.848 34.8213 116.549 32.5173 116.549 30ZM125.126 30C125.126 31.408 125.254 32.7093 125.51 33.904C125.766 35.0987 126.149 36.144 126.661 37.04C127.173 37.936 127.835 38.64 128.646 39.152C129.499 39.6213 130.502 39.856 131.654 39.856C133.83 39.856 135.451 39.0667 136.518 37.488C137.584 35.9093 138.117 33.4133 138.117 30C138.117 27.056 137.627 24.688 136.646 22.896C135.664 21.0613 134 20.144 131.654 20.144C129.606 20.144 128.006 20.912 126.854 22.448C125.702 23.984 125.126 26.5013 125.126 30Z" fill="white"/>
<path d="M166.924 21.808C165.602 21.3387 164.407 21.104 163.34 21.104C161.847 21.104 160.588 21.5093 159.564 22.32C158.583 23.088 157.922 24.0907 157.581 25.328V46H149.26V14H155.725L156.685 18.224H156.941C157.666 16.6453 158.647 15.4293 159.885 14.576C161.122 13.7227 162.573 13.296 164.237 13.296C165.346 13.296 166.605 13.5307 168.013 14L166.924 21.808Z" fill="white"/>
<path d="M195.698 34.736C195.698 36.528 195.719 38.32 195.762 40.112C195.805 41.904 195.997 43.888 196.338 46.064H190.386L189.234 41.904H188.978C188.125 43.3973 186.887 44.6133 185.266 45.552C183.687 46.448 181.81 46.896 179.634 46.896C175.623 46.896 172.509 45.5733 170.29 42.928C168.071 40.2827 166.962 36.144 166.962 30.512C166.962 25.0507 168.199 20.8053 170.674 17.776C173.149 14.7467 176.775 13.232 181.554 13.232C182.877 13.232 183.965 13.3173 184.818 13.488C185.671 13.616 186.525 13.8507 187.378 14.192V1.2H195.698V34.736ZM181.554 39.856C183.175 39.856 184.455 39.472 185.394 38.704C186.333 37.8933 186.994 36.7413 187.378 35.248V21.68C186.781 21.2107 186.119 20.8693 185.394 20.656C184.669 20.4 183.73 20.272 182.578 20.272C180.231 20.272 178.461 21.0613 177.266 22.64C176.114 24.2187 175.538 26.928 175.538 30.768C175.538 33.4987 176.007 35.696 176.946 37.36C177.927 39.024 179.463 39.856 181.554 39.856Z" fill="white"/>
<path d="M208.374 35.248C208.374 36.7413 208.566 37.8293 208.95 38.512C209.334 39.1947 209.953 39.536 210.806 39.536C211.318 39.536 211.809 39.4933 212.278 39.408C212.79 39.3227 213.409 39.1307 214.134 38.832L215.03 45.36C214.347 45.7013 213.302 46.0427 211.894 46.384C210.486 46.7253 209.035 46.896 207.542 46.896C205.11 46.896 203.254 46.3413 201.974 45.232C200.694 44.08 200.054 42.2027 200.054 39.6V1.2H208.374V35.248Z" fill="white"/>
<path d="M241.01 43.248C239.73 44.272 237.981 45.1467 235.762 45.872C233.586 46.5547 231.261 46.896 228.786 46.896C223.624 46.896 219.848 45.4027 217.458 42.416C215.069 39.3867 213.874 35.248 213.874 30C213.874 24.368 215.218 20.144 217.906 17.328C220.594 14.512 224.37 13.104 229.234 13.104C230.856 13.104 232.434 13.3173 233.97 13.744C235.506 14.1707 236.872 14.8747 238.066 15.856C239.261 16.8373 240.221 18.16 240.947 19.824C241.672 21.488 242.035 23.5573 242.035 26.032C242.035 26.928 241.97 27.888 241.842 28.912C241.757 29.936 241.608 31.0027 241.395 32.112H222.195C222.323 34.8 223.005 36.8267 224.242 38.192C225.522 39.5573 227.571 40.24 230.387 40.24C232.136 40.24 233.693 39.984 235.059 39.472C236.467 38.9173 237.533 38.3627 238.258 37.808L241.01 43.248ZM229.107 19.76C226.931 19.76 225.309 20.4213 224.242 21.744C223.218 23.024 222.6 24.752 222.387 26.928H234.29C234.461 24.624 234.098 22.8533 233.202 21.616C232.349 20.3787 230.984 19.76 229.107 19.76Z" fill="white"/>
</svg>
