<svg width="297" height="45" viewBox="0 0 297 45" fill="none" xmlns="http://www.w3.org/2000/svg">
<path d="M26.064 16.656L26.784 9.984H26.496L24.432 15.36L17.28 27.888H15.168L7.632 15.312L5.52 9.984H5.28L6.24 16.608V34.08H0V0.48H6L14.976 15.84L16.56 19.68H16.752L18.192 15.744L26.688 0.48H32.64V34.08H26.064V16.656Z" fill="white"/>
<path d="M34.6946 22.08C34.6946 18.016 35.6866 14.896 37.6706 12.72C39.6546 10.512 42.4386 9.408 46.0226 9.408C47.9426 9.408 49.6066 9.712 51.0146 10.32C52.4226 10.928 53.5906 11.792 54.5186 12.912C55.4466 14 56.1346 15.328 56.5826 16.896C57.0626 18.464 57.3026 20.192 57.3026 22.08C57.3026 26.144 56.3106 29.28 54.3266 31.488C52.3746 33.664 49.6066 34.752 46.0226 34.752C44.1026 34.752 42.4386 34.448 41.0306 33.84C39.6226 33.232 38.4386 32.384 37.4786 31.296C36.5506 30.176 35.8466 28.832 35.3666 27.264C34.9186 25.696 34.6946 23.968 34.6946 22.08ZM41.1266 22.08C41.1266 23.136 41.2226 24.112 41.4146 25.008C41.6066 25.904 41.8946 26.688 42.2786 27.36C42.6626 28.032 43.1586 28.56 43.7666 28.944C44.4066 29.296 45.1586 29.472 46.0226 29.472C47.6546 29.472 48.8706 28.88 49.6706 27.696C50.4706 26.512 50.8706 24.64 50.8706 22.08C50.8706 19.872 50.5026 18.096 49.7666 16.752C49.0306 15.376 47.7826 14.688 46.0226 14.688C44.4866 14.688 43.2866 15.264 42.4226 16.416C41.5586 17.568 41.1266 19.456 41.1266 22.08Z" fill="white"/>
<path d="M73.9159 34.08V20.448C73.9159 18.496 73.6279 17.088 73.0519 16.224C72.5079 15.36 71.5639 14.928 70.2199 14.928C69.0359 14.928 68.0279 15.28 67.1959 15.984C66.3959 16.656 65.8199 17.504 65.4679 18.528V34.08H59.2279V10.08H64.1719L64.8919 13.248H65.0839C65.8199 12.224 66.7959 11.328 68.0119 10.56C69.2279 9.792 70.7959 9.408 72.7159 9.408C73.8999 9.408 74.9559 9.568 75.8839 9.888C76.8119 10.208 77.5959 10.736 78.2359 11.472C78.8759 12.208 79.3559 13.216 79.6759 14.496C79.9959 15.744 80.1559 17.296 80.1559 19.152V34.08H73.9159Z" fill="white"/>
<path d="M83.1281 0.816001C84.4721 0.56 85.9441 0.368 87.5441 0.24C89.1761 0.0799999 90.7921 0 92.3921 0C94.0561 0 95.7201 0.144 97.3841 0.432C99.0801 0.688001 100.6 1.232 101.944 2.064C103.288 2.864 104.376 4 105.208 5.472C106.072 6.912 106.504 8.8 106.504 11.136C106.504 13.248 106.136 15.04 105.4 16.512C104.664 17.952 103.688 19.136 102.472 20.064C101.256 20.992 99.8641 21.664 98.2961 22.08C96.7601 22.496 95.1601 22.704 93.4961 22.704C93.3361 22.704 93.0801 22.704 92.7281 22.704C92.3761 22.704 92.0081 22.704 91.6241 22.704C91.2401 22.672 90.8561 22.64 90.4721 22.608C90.1201 22.576 89.8641 22.544 89.7041 22.512V34.08H83.1281V0.816001ZM92.9201 5.664C92.2801 5.664 91.6721 5.696 91.0961 5.76C90.5201 5.792 90.0561 5.84 89.7041 5.904V16.8C89.8321 16.832 90.0241 16.864 90.2801 16.896C90.5361 16.928 90.8081 16.96 91.0961 16.992C91.3841 16.992 91.6561 16.992 91.9121 16.992C92.2001 16.992 92.4081 16.992 92.5361 16.992C93.4001 16.992 94.2481 16.912 95.0801 16.752C95.9441 16.592 96.7121 16.304 97.3841 15.888C98.0561 15.44 98.5841 14.832 98.9681 14.064C99.3841 13.296 99.5921 12.288 99.5921 11.04C99.5921 9.984 99.4001 9.12 99.0161 8.448C98.6321 7.744 98.1201 7.184 97.4801 6.768C96.8721 6.352 96.1681 6.064 95.3681 5.904C94.5681 5.744 93.7521 5.664 92.9201 5.664Z" fill="white"/>
<path d="M119.895 15.936C118.903 15.584 118.007 15.408 117.207 15.408C116.087 15.408 115.143 15.712 114.375 16.32C113.639 16.896 113.143 17.648 112.887 18.576V34.08H106.647V10.08H111.495L112.215 13.248H112.407C112.951 12.064 113.687 11.152 114.615 10.512C115.543 9.872 116.631 9.552 117.879 9.552C118.711 9.552 119.655 9.728 120.711 10.08L119.895 15.936Z" fill="white"/>
<path d="M119.923 22.08C119.923 18.016 120.915 14.896 122.899 12.72C124.883 10.512 127.667 9.408 131.251 9.408C133.171 9.408 134.835 9.712 136.243 10.32C137.651 10.928 138.819 11.792 139.747 12.912C140.675 14 141.363 15.328 141.811 16.896C142.291 18.464 142.531 20.192 142.531 22.08C142.531 26.144 141.539 29.28 139.555 31.488C137.603 33.664 134.835 34.752 131.251 34.752C129.331 34.752 127.667 34.448 126.259 33.84C124.851 33.232 123.667 32.384 122.707 31.296C121.779 30.176 121.075 28.832 120.595 27.264C120.147 25.696 119.923 23.968 119.923 22.08ZM126.355 22.08C126.355 23.136 126.451 24.112 126.643 25.008C126.835 25.904 127.123 26.688 127.507 27.36C127.891 28.032 128.387 28.56 128.995 28.944C129.635 29.296 130.387 29.472 131.251 29.472C132.883 29.472 134.099 28.88 134.899 27.696C135.699 26.512 136.099 24.64 136.099 22.08C136.099 19.872 135.731 18.096 134.995 16.752C134.259 15.376 133.011 14.688 131.251 14.688C129.715 14.688 128.515 15.264 127.651 16.416C126.787 17.568 126.355 19.456 126.355 22.08Z" fill="white"/>
<path d="M164.76 34.08C164.76 37.568 163.816 40.128 161.928 41.76C160.04 43.424 157.4 44.256 154.008 44.256C151.704 44.256 149.88 44.096 148.536 43.776C147.224 43.456 146.232 43.12 145.56 42.768L146.856 37.824C147.592 38.112 148.44 38.4 149.4 38.688C150.392 38.976 151.608 39.12 153.048 39.12C155.224 39.12 156.696 38.64 157.464 37.68C158.264 36.752 158.664 35.44 158.664 33.744V32.208H158.472C157.352 33.712 155.368 34.464 152.52 34.464C149.416 34.464 147.096 33.504 145.56 31.584C144.056 29.664 143.304 26.656 143.304 22.56C143.304 18.272 144.328 15.024 146.376 12.816C148.424 10.608 151.4 9.504 155.304 9.504C157.352 9.504 159.176 9.648 160.776 9.936C162.408 10.224 163.736 10.56 164.76 10.944V34.08ZM154.2 29.472C155.416 29.472 156.344 29.2 156.984 28.656C157.656 28.112 158.168 27.296 158.52 26.208V15.408C157.528 14.992 156.296 14.784 154.824 14.784C153.224 14.784 151.976 15.392 151.08 16.608C150.184 17.792 149.736 19.696 149.736 22.32C149.736 24.656 150.12 26.432 150.888 27.648C151.656 28.864 152.76 29.472 154.2 29.472Z" fill="white"/>
<path d="M181.038 15.936C180.046 15.584 179.15 15.408 178.35 15.408C177.23 15.408 176.286 15.712 175.518 16.32C174.782 16.896 174.286 17.648 174.03 18.576V34.08H167.79V10.08H172.638L173.358 13.248H173.55C174.094 12.064 174.83 11.152 175.758 10.512C176.686 9.872 177.774 9.552 179.022 9.552C179.854 9.552 180.798 9.728 181.854 10.08L181.038 15.936Z" fill="white"/>
<path d="M182.074 11.472C183.354 10.896 184.874 10.448 186.634 10.128C188.394 9.776 190.234 9.6 192.154 9.6C193.818 9.6 195.211 9.808 196.331 10.224C197.451 10.608 198.331 11.168 198.971 11.904C199.643 12.64 200.107 13.52 200.363 14.544C200.651 15.568 200.794 16.72 200.794 18C200.794 19.408 200.746 20.832 200.65 22.272C200.554 23.68 200.49 25.072 200.458 26.448C200.458 27.824 200.506 29.168 200.602 30.48C200.698 31.76 200.938 32.976 201.322 34.128H196.234L195.227 30.816H194.986C194.346 31.808 193.45 32.672 192.298 33.408C191.178 34.112 189.722 34.464 187.93 34.464C186.81 34.464 185.802 34.304 184.906 33.984C184.01 33.632 183.242 33.152 182.602 32.544C181.962 31.904 181.467 31.168 181.115 30.336C180.763 29.472 180.587 28.512 180.587 27.456C180.587 25.984 180.906 24.752 181.546 23.76C182.218 22.736 183.162 21.92 184.378 21.312C185.626 20.672 187.098 20.24 188.794 20.016C190.522 19.76 192.443 19.68 194.555 19.776C194.779 17.984 194.651 16.704 194.171 15.936C193.691 15.136 192.618 14.736 190.954 14.736C189.706 14.736 188.379 14.864 186.971 15.12C185.595 15.376 184.459 15.712 183.562 16.128L182.074 11.472ZM189.994 29.328C191.242 29.328 192.235 29.056 192.971 28.512C193.707 27.936 194.25 27.328 194.602 26.688V23.568C193.61 23.472 192.651 23.456 191.723 23.52C190.827 23.584 190.026 23.728 189.322 23.952C188.618 24.176 188.059 24.496 187.643 24.912C187.227 25.328 187.018 25.856 187.018 26.496C187.018 27.392 187.274 28.096 187.786 28.608C188.33 29.088 189.066 29.328 189.994 29.328Z" fill="white"/>
<path d="M217.263 34.08V21.024C217.263 18.816 217.055 17.248 216.639 16.32C216.223 15.392 215.359 14.928 214.047 14.928C212.959 14.928 212.079 15.232 211.407 15.84C210.735 16.416 210.223 17.168 209.871 18.096V34.08H203.631V10.08H208.479L209.199 13.248H209.391C210.127 12.224 211.055 11.328 212.175 10.56C213.327 9.792 214.799 9.408 216.591 9.408C218.127 9.408 219.375 9.728 220.335 10.368C221.327 10.976 222.095 12.016 222.639 13.488C223.375 12.24 224.319 11.248 225.471 10.512C226.623 9.776 228.015 9.408 229.647 9.408C230.991 9.408 232.127 9.568 233.055 9.888C234.015 10.208 234.783 10.768 235.359 11.568C235.967 12.336 236.415 13.376 236.703 14.688C236.991 16 237.135 17.664 237.135 19.68V34.08H230.895V20.592C230.895 18.704 230.687 17.296 230.271 16.368C229.887 15.408 229.007 14.928 227.631 14.928C226.511 14.928 225.615 15.232 224.943 15.84C224.303 16.448 223.823 17.28 223.503 18.336V34.08H217.263Z" fill="white"/>
<path d="M253.488 34.08V21.024C253.488 18.816 253.28 17.248 252.864 16.32C252.448 15.392 251.584 14.928 250.272 14.928C249.184 14.928 248.304 15.232 247.632 15.84C246.96 16.416 246.448 17.168 246.096 18.096V34.08H239.856V10.08H244.704L245.424 13.248H245.616C246.352 12.224 247.28 11.328 248.4 10.56C249.552 9.792 251.024 9.408 252.816 9.408C254.352 9.408 255.6 9.728 256.56 10.368C257.552 10.976 258.32 12.016 258.864 13.488C259.6 12.24 260.544 11.248 261.696 10.512C262.848 9.776 264.24 9.408 265.872 9.408C267.216 9.408 268.352 9.568 269.28 9.888C270.24 10.208 271.008 10.768 271.584 11.568C272.192 12.336 272.64 13.376 272.928 14.688C273.216 16 273.36 17.664 273.36 19.68V34.08H267.12V20.592C267.12 18.704 266.912 17.296 266.496 16.368C266.112 15.408 265.232 14.928 263.856 14.928C262.736 14.928 261.84 15.232 261.168 15.84C260.528 16.448 260.048 17.28 259.728 18.336V34.08H253.488Z" fill="white"/>
<path d="M295.281 32.016C294.321 32.784 293.009 33.44 291.345 33.984C289.713 34.496 287.969 34.752 286.113 34.752C282.241 34.752 279.409 33.632 277.617 31.392C275.825 29.12 274.929 26.016 274.929 22.08C274.929 17.856 275.937 14.688 277.953 12.576C279.969 10.464 282.801 9.408 286.449 9.408C287.665 9.408 288.849 9.568 290.001 9.888C291.153 10.208 292.177 10.736 293.073 11.472C293.969 12.208 294.689 13.2 295.233 14.448C295.777 15.696 296.049 17.248 296.049 19.104C296.049 19.776 296.001 20.496 295.905 21.264C295.841 22.032 295.729 22.832 295.569 23.664H281.169C281.265 25.68 281.777 27.2 282.705 28.224C283.665 29.248 285.201 29.76 287.313 29.76C288.625 29.76 289.793 29.568 290.817 29.184C291.873 28.768 292.673 28.352 293.217 27.936L295.281 32.016ZM286.353 14.4C284.721 14.4 283.505 14.896 282.705 15.888C281.937 16.848 281.473 18.144 281.313 19.776H290.241C290.369 18.048 290.097 16.72 289.425 15.792C288.785 14.864 287.761 14.4 286.353 14.4Z" fill="white"/>
</svg>
