<?xml version="1.0" encoding="UTF-8"?> <svg xmlns="http://www.w3.org/2000/svg" id="Composant" width="209" height="88" viewBox="0 0 209 88"><rect id="Rectangle_945" data-name="Rectangle 945" width="209" height="88" fill="#fff" opacity="0"></rect><g id="Composant-2" data-name="Composant" transform="translate(15 17.742)"><g id="Groupe_1578" data-name="Groupe 1578"><g id="Groupe_1576" data-name="Groupe 1576" transform="translate(0 47.668)"><path id="Tracé_4122" data-name="Tracé 4122" d="M145.5,196.606a.168.168,0,0,1-.05-.121v-4.644a.186.186,0,0,1,.046-.129.166.166,0,0,1,.125-.05h1.912a2.067,2.067,0,0,1,1.355.407,1.448,1.448,0,0,1,.492,1.184,1.408,1.408,0,0,1-.492,1.166,2.106,2.106,0,0,1-1.355.4h-1.049v1.669a.164.164,0,0,1-.05.125.181.181,0,0,1-.128.046h-.685A.166.166,0,0,1,145.5,196.606Zm2-2.59a.913.913,0,0,0,.631-.2.735.735,0,0,0,.217-.574.775.775,0,0,0-.21-.578.877.877,0,0,0-.638-.207h-1.027v1.555Z" transform="translate(-145.45 -191.377)" fill="#114c67"></path><path id="Tracé_4123" data-name="Tracé 4123" d="M154.12,197.409a1.209,1.209,0,0,1-.479-.4.969.969,0,0,1,.218-1.334,2.355,2.355,0,0,1,1.078-.407l.977-.143v-.15a.628.628,0,0,0-.157-.464.683.683,0,0,0-.5-.157.73.73,0,0,0-.379.086,1.2,1.2,0,0,0-.232.175l-.118.118a.108.108,0,0,1-.107.086h-.556a.158.158,0,0,1-.111-.043.15.15,0,0,1-.046-.114.755.755,0,0,1,.175-.4,1.366,1.366,0,0,1,.517-.392,1.988,1.988,0,0,1,.863-.168,1.7,1.7,0,0,1,1.227.378,1.327,1.327,0,0,1,.385.992v2.24a.172.172,0,0,1-.046.121.162.162,0,0,1-.125.05h-.592a.171.171,0,0,1-.171-.171v-.278a1.17,1.17,0,0,1-.442.375,1.553,1.553,0,0,1-.713.146A1.51,1.51,0,0,1,154.12,197.409Zm1.551-.8a1.022,1.022,0,0,0,.25-.742v-.143l-.713.114q-.82.128-.82.549a.4.4,0,0,0,.189.353.8.8,0,0,0,.453.125A.856.856,0,0,0,155.671,196.614Z" transform="translate(-148.701 -192.205)" fill="#114c67"></path><path id="Tracé_4124" data-name="Tracé 4124" d="M161.712,196.606a.167.167,0,0,1-.05-.121v-4.644a.186.186,0,0,1,.046-.129.165.165,0,0,1,.125-.05h1.848a2.1,2.1,0,0,1,1.373.407,1.408,1.408,0,0,1,.5,1.155,1.472,1.472,0,0,1-.25.874,1.388,1.388,0,0,1-.7.51l1.034,1.819a.186.186,0,0,1,.021.078.14.14,0,0,1-.046.107.154.154,0,0,1-.1.043h-.656a.27.27,0,0,1-.178-.053.53.53,0,0,1-.115-.139l-.913-1.691h-.977v1.712a.167.167,0,0,1-.05.121.174.174,0,0,1-.128.05h-.657A.166.166,0,0,1,161.712,196.606Zm1.948-2.647a.946.946,0,0,0,.642-.189.7.7,0,0,0,.214-.553.721.721,0,0,0-.214-.56.923.923,0,0,0-.642-.2h-.992v1.5Z" transform="translate(-152.024 -191.377)" fill="#114c67"></path><path id="Tracé_4125" data-name="Tracé 4125" d="M170.389,192.159a.163.163,0,0,1-.05-.121v-.521a.172.172,0,0,1,.05-.128.165.165,0,0,1,.121-.05h.656a.171.171,0,0,1,.178.178v.521a.159.159,0,0,1-.053.121.177.177,0,0,1-.125.05h-.656A.165.165,0,0,1,170.389,192.159Zm.029,4.316a.165.165,0,0,1-.05-.121v-3.367a.162.162,0,0,1,.05-.125.172.172,0,0,1,.121-.046h.606a.17.17,0,0,1,.172.171v3.367a.171.171,0,0,1-.172.171h-.606A.165.165,0,0,1,170.417,196.475Z" transform="translate(-155.543 -191.246)" fill="#114c67"></path><path id="Tracé_4126" data-name="Tracé 4126" d="M174.712,197.391a1.429,1.429,0,0,1-.538-.382.645.645,0,0,1-.175-.375.148.148,0,0,1,.046-.114.158.158,0,0,1,.111-.043h.585a.125.125,0,0,1,.1.058q.036.029.161.136a.944.944,0,0,0,.285.168.992.992,0,0,0,.353.061.871.871,0,0,0,.464-.111.354.354,0,0,0,.178-.317.329.329,0,0,0-.082-.232.743.743,0,0,0-.292-.164,5.691,5.691,0,0,0-.631-.168,1.9,1.9,0,0,1-.9-.392.9.9,0,0,1-.29-.7.946.946,0,0,1,.172-.539,1.233,1.233,0,0,1,.51-.414,1.877,1.877,0,0,1,.81-.16,2.058,2.058,0,0,1,.835.153,1.447,1.447,0,0,1,.531.367.624.624,0,0,1,.182.378.158.158,0,0,1-.157.157h-.535a.142.142,0,0,1-.121-.057q-.05-.036-.161-.132a.919.919,0,0,0-.246-.153.845.845,0,0,0-.328-.057.639.639,0,0,0-.407.114.368.368,0,0,0-.143.3.334.334,0,0,0,.068.214.626.626,0,0,0,.275.161,4.327,4.327,0,0,0,.621.153q1.284.25,1.284,1.12a.964.964,0,0,1-.439.82,2.07,2.07,0,0,1-1.223.314A2.207,2.207,0,0,1,174.712,197.391Z" transform="translate(-157.027 -192.205)" fill="#114c67"></path><path id="Tracé_4127" data-name="Tracé 4127" d="M184.146,196.613a.145.145,0,0,1-.043-.107l.014-.064,1.712-4.6a.258.258,0,0,1,.257-.179h.785a.258.258,0,0,1,.257.179l1.712,4.6.015.064a.14.14,0,0,1-.046.107.153.153,0,0,1-.1.043h-.635a.206.206,0,0,1-.207-.136l-.328-.863h-2.112l-.328.863a.207.207,0,0,1-.207.136h-.635A.147.147,0,0,1,184.146,196.613Zm1.526-1.783h1.612l-.806-2.2Z" transform="translate(-161.125 -191.377)" fill="#114c67"></path><path id="Tracé_4128" data-name="Tracé 4128" d="M193.884,197.483a.165.165,0,0,1-.05-.121V194a.173.173,0,0,1,.05-.128.165.165,0,0,1,.121-.05h.586a.171.171,0,0,1,.178.178v.293a1.211,1.211,0,0,1,1.027-.471h.3a.169.169,0,0,1,.125.046.166.166,0,0,1,.046.125v.521a.169.169,0,0,1-.046.121.164.164,0,0,1-.125.05h-.563a.666.666,0,0,0-.721.721v1.955a.17.17,0,0,1-.171.171h-.635A.165.165,0,0,1,193.884,197.483Z" transform="translate(-165.071 -192.254)" fill="#114c67"></path><path id="Tracé_4129" data-name="Tracé 4129" d="M200.106,196.269a1.376,1.376,0,0,1-.329-1v-1.612h-.563a.165.165,0,0,1-.121-.05.163.163,0,0,1-.05-.121v-.421a.163.163,0,0,1,.05-.121.165.165,0,0,1,.121-.05h.563v-1.185a.166.166,0,0,1,.05-.125.175.175,0,0,1,.122-.046h.592a.171.171,0,0,1,.125.046.173.173,0,0,1,.046.125V192.9h.892a.17.17,0,0,1,.171.171v.421a.17.17,0,0,1-.171.171h-.892V195.2a.825.825,0,0,0,.106.464.394.394,0,0,0,.35.157h.5a.16.16,0,0,1,.171.171v.449a.172.172,0,0,1-.046.121.163.163,0,0,1-.125.05h-.585A1.3,1.3,0,0,1,200.106,196.269Z" transform="translate(-167.183 -191.329)" fill="#114c67"></path><path id="Tracé_4130" data-name="Tracé 4130" d="M205.6,192.159a.163.163,0,0,1-.05-.121v-.521a.172.172,0,0,1,.05-.128.165.165,0,0,1,.121-.05h.656a.171.171,0,0,1,.178.178v.521a.159.159,0,0,1-.053.121.177.177,0,0,1-.125.05h-.656A.165.165,0,0,1,205.6,192.159Zm.029,4.316a.165.165,0,0,1-.05-.121v-3.367a.162.162,0,0,1,.05-.125.172.172,0,0,1,.121-.046h.606a.17.17,0,0,1,.171.171v3.367a.171.171,0,0,1-.171.171h-.606A.165.165,0,0,1,205.624,196.475Z" transform="translate(-169.82 -191.246)" fill="#114c67"></path><path id="Tracé_4131" data-name="Tracé 4131" d="M209.766,196.412a.165.165,0,0,1-.05-.121v-2.775h-.578a.171.171,0,0,1-.171-.171v-.421a.17.17,0,0,1,.171-.171h.578v-.285a1.242,1.242,0,0,1,.35-.967,1.527,1.527,0,0,1,1.056-.317H212.6a.159.159,0,0,1,.171.171v.421a.17.17,0,0,1-.171.171h-1.44a.491.491,0,0,0-.393.136.645.645,0,0,0-.114.421v.25H212.6a.159.159,0,0,1,.171.171v3.367a.171.171,0,0,1-.046.121.163.163,0,0,1-.125.05h-.591a.17.17,0,0,1-.171-.171v-2.775h-1.184v2.775a.172.172,0,0,1-.046.121.162.162,0,0,1-.125.05h-.592A.164.164,0,0,1,209.766,196.412Z" transform="translate(-171.207 -191.183)" fill="#114c67"></path><path id="Tracé_4132" data-name="Tracé 4132" d="M217.977,197.12a1.66,1.66,0,0,1-.5-1.206l-.007-.285.007-.285a1.66,1.66,0,0,1,.5-1.206,1.766,1.766,0,0,1,1.253-.435,2.07,2.07,0,0,1,.952.2,1.48,1.48,0,0,1,.578.489,1.136,1.136,0,0,1,.2.552.142.142,0,0,1-.046.122.178.178,0,0,1-.125.05h-.635a.167.167,0,0,1-.114-.032.336.336,0,0,1-.071-.118.833.833,0,0,0-.282-.393.767.767,0,0,0-.446-.121.722.722,0,0,0-.567.228,1.082,1.082,0,0,0-.217.7l-.008.264.008.235q.043.927.784.927a.779.779,0,0,0,.45-.118.822.822,0,0,0,.278-.4.277.277,0,0,1,.067-.114.171.171,0,0,1,.118-.036h.635a.178.178,0,0,1,.125.05.141.141,0,0,1,.046.121,1.14,1.14,0,0,1-.2.539,1.5,1.5,0,0,1-.571.5,2.022,2.022,0,0,1-.963.207A1.766,1.766,0,0,1,217.977,197.12Z" transform="translate(-174.658 -192.205)" fill="#114c67"></path><path id="Tracé_4133" data-name="Tracé 4133" d="M225.372,192.159a.165.165,0,0,1-.05-.121v-.521a.174.174,0,0,1,.05-.128.166.166,0,0,1,.122-.05h.656a.171.171,0,0,1,.178.178v.521a.158.158,0,0,1-.053.121.177.177,0,0,1-.125.05h-.656A.166.166,0,0,1,225.372,192.159Zm.029,4.316a.167.167,0,0,1-.05-.121v-3.367a.164.164,0,0,1,.05-.125.172.172,0,0,1,.121-.046h.606a.165.165,0,0,1,.121.05.163.163,0,0,1,.05.121v3.367a.163.163,0,0,1-.05.121.165.165,0,0,1-.121.05h-.606A.165.165,0,0,1,225.4,196.475Z" transform="translate(-177.84 -191.246)" fill="#114c67"></path><path id="Tracé_4134" data-name="Tracé 4134" d="M229.575,197.409a1.209,1.209,0,0,1-.479-.4.969.969,0,0,1,.218-1.334,2.355,2.355,0,0,1,1.078-.407l.977-.143v-.15a.63.63,0,0,0-.156-.464.684.684,0,0,0-.5-.157.73.73,0,0,0-.379.086,1.2,1.2,0,0,0-.232.175l-.118.118a.108.108,0,0,1-.107.086h-.556a.158.158,0,0,1-.111-.043.15.15,0,0,1-.046-.114.754.754,0,0,1,.175-.4,1.366,1.366,0,0,1,.517-.392,1.988,1.988,0,0,1,.863-.168,1.7,1.7,0,0,1,1.227.378,1.325,1.325,0,0,1,.385.992v2.24a.172.172,0,0,1-.046.121.162.162,0,0,1-.125.05h-.592a.17.17,0,0,1-.171-.171v-.278a1.17,1.17,0,0,1-.442.375,1.553,1.553,0,0,1-.713.146A1.514,1.514,0,0,1,229.575,197.409Zm1.551-.8a1.022,1.022,0,0,0,.25-.742v-.143l-.713.114q-.82.128-.82.549a.4.4,0,0,0,.189.353.8.8,0,0,0,.453.125A.856.856,0,0,0,231.126,196.614Z" transform="translate(-179.299 -192.205)" fill="#114c67"></path><path id="Tracé_4135" data-name="Tracé 4135" d="M237.035,196.558a.167.167,0,0,1-.049-.121v-4.723a.166.166,0,0,1,.049-.125.176.176,0,0,1,.122-.046h.6a.159.159,0,0,1,.171.171v4.723a.169.169,0,0,1-.046.121.161.161,0,0,1-.125.05h-.6A.167.167,0,0,1,237.035,196.558Z" transform="translate(-182.57 -191.329)" fill="#114c67"></path><path id="Tracé_4136" data-name="Tracé 4136" d="M244.656,196.606a.165.165,0,0,1-.05-.121v-4.651a.162.162,0,0,1,.05-.125.172.172,0,0,1,.121-.047h.685a.161.161,0,0,1,.171.172v4.651a.172.172,0,0,1-.046.121.162.162,0,0,1-.125.05h-.685A.165.165,0,0,1,244.656,196.606Z" transform="translate(-185.66 -191.377)" fill="#114c67"></path><path id="Tracé_4137" data-name="Tracé 4137" d="M248.892,197.434a.165.165,0,0,1-.05-.121v-3.367a.162.162,0,0,1,.05-.125.172.172,0,0,1,.121-.046h.592a.16.16,0,0,1,.171.171v.293a1.452,1.452,0,0,1,1.191-.535,1.332,1.332,0,0,1,1.042.428,1.7,1.7,0,0,1,.385,1.177v2a.172.172,0,0,1-.046.121.162.162,0,0,1-.125.05h-.642a.171.171,0,0,1-.171-.171v-1.962a.944.944,0,0,0-.2-.646.73.73,0,0,0-.581-.232.765.765,0,0,0-.585.236.9.9,0,0,0-.221.642v1.962a.172.172,0,0,1-.046.121.162.162,0,0,1-.125.05h-.635A.165.165,0,0,1,248.892,197.434Z" transform="translate(-187.377 -192.205)" fill="#114c67"></path><path id="Tracé_4138" data-name="Tracé 4138" d="M257.513,196.269a1.376,1.376,0,0,1-.328-1v-1.612h-.564a.17.17,0,0,1-.171-.171v-.421a.17.17,0,0,1,.171-.171h.564v-1.185a.164.164,0,0,1,.05-.125.174.174,0,0,1,.121-.046h.592a.159.159,0,0,1,.171.171V192.9h.892a.17.17,0,0,1,.171.171v.421a.17.17,0,0,1-.171.171h-.892V195.2a.825.825,0,0,0,.107.464.392.392,0,0,0,.35.157h.5a.16.16,0,0,1,.171.171v.449a.172.172,0,0,1-.046.121.162.162,0,0,1-.125.05h-.585A1.3,1.3,0,0,1,257.513,196.269Z" transform="translate(-190.463 -191.329)" fill="#114c67"></path><path id="Tracé_4139" data-name="Tracé 4139" d="M263.229,197.1a1.822,1.822,0,0,1-.5-1.3l-.007-.178a2.01,2.01,0,0,1,.467-1.405,1.907,1.907,0,0,1,2.6,0,1.975,1.975,0,0,1,.46,1.369v.15a.166.166,0,0,1-.05.122.173.173,0,0,1-.128.05H263.71v.057a1.107,1.107,0,0,0,.218.66.672.672,0,0,0,.561.26.806.806,0,0,0,.663-.328.386.386,0,0,1,.1-.1.294.294,0,0,1,.121-.018H266a.175.175,0,0,1,.11.035.12.12,0,0,1,.046.1.663.663,0,0,1-.2.4,1.684,1.684,0,0,1-.581.4,2.108,2.108,0,0,1-.877.171A1.732,1.732,0,0,1,263.229,197.1Zm2.044-1.8v-.014a1.021,1.021,0,0,0-.21-.674.707.707,0,0,0-.574-.253.7.7,0,0,0-.571.253,1.033,1.033,0,0,0-.207.674v.014Z" transform="translate(-193.008 -192.205)" fill="#114c67"></path><path id="Tracé_4140" data-name="Tracé 4140" d="M270.78,196.558a.165.165,0,0,1-.05-.121v-4.723a.164.164,0,0,1,.05-.125.174.174,0,0,1,.121-.046h.6a.159.159,0,0,1,.171.171v4.723a.172.172,0,0,1-.046.121.163.163,0,0,1-.125.05h-.6A.165.165,0,0,1,270.78,196.558Z" transform="translate(-196.253 -191.329)" fill="#114c67"></path><path id="Tracé_4141" data-name="Tracé 4141" d="M274.751,196.558a.167.167,0,0,1-.05-.121v-4.723a.166.166,0,0,1,.05-.125.175.175,0,0,1,.121-.046h.6a.171.171,0,0,1,.125.046.168.168,0,0,1,.046.125v4.723a.169.169,0,0,1-.046.121.162.162,0,0,1-.125.05h-.6A.166.166,0,0,1,274.751,196.558Z" transform="translate(-197.864 -191.329)" fill="#114c67"></path><path id="Tracé_4142" data-name="Tracé 4142" d="M278.663,192.159a.165.165,0,0,1-.05-.121v-.521a.174.174,0,0,1,.05-.128.166.166,0,0,1,.122-.05h.656a.174.174,0,0,1,.128.05.171.171,0,0,1,.05.128v.521a.158.158,0,0,1-.053.121.177.177,0,0,1-.125.05h-.656A.166.166,0,0,1,278.663,192.159Zm.029,4.316a.167.167,0,0,1-.05-.121v-3.367a.164.164,0,0,1,.05-.125.172.172,0,0,1,.121-.046h.606a.165.165,0,0,1,.121.05.163.163,0,0,1,.05.121v3.367a.163.163,0,0,1-.05.121.165.165,0,0,1-.121.05h-.606A.165.165,0,0,1,278.691,196.475Z" transform="translate(-199.45 -191.246)" fill="#114c67"></path><path id="Tracé_4143" data-name="Tracé 4143" d="M283.168,198.843a1.394,1.394,0,0,1-.556-.482.934.934,0,0,1-.165-.463.154.154,0,0,1,.05-.118.172.172,0,0,1,.121-.046h.636a.189.189,0,0,1,.11.032.224.224,0,0,1,.075.118.834.834,0,0,0,.236.317.744.744,0,0,0,.484.132.712.712,0,0,0,.828-.849V197a1.348,1.348,0,0,1-1.091.457,1.369,1.369,0,0,1-1.116-.449,1.974,1.974,0,0,1-.4-1.227l-.007-.193.007-.192a2,2,0,0,1,.407-1.227,1.35,1.35,0,0,1,1.113-.464,1.463,1.463,0,0,1,.663.143,1.335,1.335,0,0,1,.471.385v-.279a.166.166,0,0,1,.054-.128.176.176,0,0,1,.125-.05h.584a.164.164,0,0,1,.121.05.173.173,0,0,1,.05.128l.007,3.439a1.646,1.646,0,0,1-.442,1.227,1.834,1.834,0,0,1-1.334.435A2.179,2.179,0,0,1,283.168,198.843Zm1.6-2.4a1.107,1.107,0,0,0,.221-.628c0-.038.007-.114.007-.229s0-.19-.007-.228a1.107,1.107,0,0,0-.221-.628.714.714,0,0,0-.6-.257q-.771,0-.813.942l-.008.171q0,1.114.821,1.113A.714.714,0,0,0,284.767,196.442Z" transform="translate(-200.973 -192.205)" fill="#114c67"></path><path id="Tracé_4144" data-name="Tracé 4144" d="M291.02,197.1a1.822,1.822,0,0,1-.5-1.3l-.007-.178a2.01,2.01,0,0,1,.467-1.405,1.907,1.907,0,0,1,2.6,0,1.975,1.975,0,0,1,.46,1.369v.15a.165.165,0,0,1-.05.122.173.173,0,0,1-.128.05H291.5v.057a1.107,1.107,0,0,0,.218.66.672.672,0,0,0,.561.26.806.806,0,0,0,.663-.328.387.387,0,0,1,.1-.1.294.294,0,0,1,.121-.018h.628a.175.175,0,0,1,.11.035.12.12,0,0,1,.046.1.664.664,0,0,1-.2.4,1.684,1.684,0,0,1-.581.4,2.109,2.109,0,0,1-.877.171A1.732,1.732,0,0,1,291.02,197.1Zm2.044-1.8v-.014a1.021,1.021,0,0,0-.21-.674.707.707,0,0,0-.574-.253.7.7,0,0,0-.571.253,1.033,1.033,0,0,0-.207.674v.014Z" transform="translate(-204.277 -192.205)" fill="#114c67"></path><path id="Tracé_4145" data-name="Tracé 4145" d="M298.559,197.434a.165.165,0,0,1-.05-.121v-3.367a.162.162,0,0,1,.05-.125.172.172,0,0,1,.121-.046h.592a.16.16,0,0,1,.171.171v.293a1.452,1.452,0,0,1,1.192-.535,1.332,1.332,0,0,1,1.042.428,1.7,1.7,0,0,1,.385,1.177v2a.171.171,0,0,1-.046.121.163.163,0,0,1-.125.05h-.642a.17.17,0,0,1-.171-.171v-1.962a.947.947,0,0,0-.2-.646.732.732,0,0,0-.581-.232.765.765,0,0,0-.585.236.9.9,0,0,0-.221.642v1.962a.172.172,0,0,1-.046.121.162.162,0,0,1-.125.05h-.635A.165.165,0,0,1,298.559,197.434Z" transform="translate(-207.518 -192.205)" fill="#114c67"></path><path id="Tracé_4146" data-name="Tracé 4146" d="M307.04,197.12a1.661,1.661,0,0,1-.5-1.206l-.007-.285.007-.285a1.661,1.661,0,0,1,.5-1.206,1.766,1.766,0,0,1,1.253-.435,2.07,2.07,0,0,1,.952.2,1.48,1.48,0,0,1,.578.489,1.136,1.136,0,0,1,.2.552.142.142,0,0,1-.046.122.178.178,0,0,1-.125.05h-.635a.167.167,0,0,1-.114-.032.337.337,0,0,1-.071-.118.833.833,0,0,0-.282-.393.767.767,0,0,0-.446-.121.722.722,0,0,0-.567.228,1.082,1.082,0,0,0-.217.7l-.008.264.008.235q.043.927.784.927a.779.779,0,0,0,.45-.118.822.822,0,0,0,.278-.4.278.278,0,0,1,.067-.114.171.171,0,0,1,.118-.036h.635a.178.178,0,0,1,.125.05.141.141,0,0,1,.046.121,1.14,1.14,0,0,1-.2.539,1.5,1.5,0,0,1-.571.5,2.022,2.022,0,0,1-.963.207A1.766,1.766,0,0,1,307.04,197.12Z" transform="translate(-210.774 -192.205)" fill="#114c67"></path><path id="Tracé_4147" data-name="Tracé 4147" d="M314.661,197.1a1.817,1.817,0,0,1-.5-1.3l-.008-.178a2.013,2.013,0,0,1,.467-1.405,1.907,1.907,0,0,1,2.6,0,1.972,1.972,0,0,1,.46,1.369v.15a.166.166,0,0,1-.05.122.172.172,0,0,1-.128.05h-2.369v.057a1.107,1.107,0,0,0,.218.66.672.672,0,0,0,.561.26.806.806,0,0,0,.663-.328.386.386,0,0,1,.1-.1.294.294,0,0,1,.121-.018h.628a.175.175,0,0,1,.11.035.12.12,0,0,1,.046.1.665.665,0,0,1-.2.4,1.694,1.694,0,0,1-.582.4,2.109,2.109,0,0,1-.877.171A1.729,1.729,0,0,1,314.661,197.1Zm2.043-1.8v-.014a1.024,1.024,0,0,0-.21-.674.709.709,0,0,0-.574-.253.7.7,0,0,0-.571.253,1.033,1.033,0,0,0-.207.674v.014Z" transform="translate(-213.864 -192.205)" fill="#114c67"></path><path id="Tracé_4148" data-name="Tracé 4148" d="M325.859,196.606a.167.167,0,0,1-.05-.121v-4.644a.187.187,0,0,1,.046-.129.165.165,0,0,1,.125-.05h1.848a2.1,2.1,0,0,1,1.373.407,1.408,1.408,0,0,1,.5,1.155,1.472,1.472,0,0,1-.25.874,1.391,1.391,0,0,1-.7.51l1.034,1.819a.186.186,0,0,1,.021.078.14.14,0,0,1-.046.107.154.154,0,0,1-.1.043H329a.271.271,0,0,1-.178-.053.53.53,0,0,1-.115-.139l-.913-1.691h-.977v1.712a.168.168,0,0,1-.05.121.174.174,0,0,1-.128.05h-.657A.166.166,0,0,1,325.859,196.606Zm1.948-2.647a.946.946,0,0,0,.642-.189.7.7,0,0,0,.214-.553.721.721,0,0,0-.214-.56.923.923,0,0,0-.642-.2h-.992v1.5Z" transform="translate(-218.589 -191.377)" fill="#114c67"></path><path id="Tracé_4149" data-name="Tracé 4149" d="M334.689,197.1a1.817,1.817,0,0,1-.5-1.3l-.008-.178a2.013,2.013,0,0,1,.467-1.405,1.907,1.907,0,0,1,2.6,0,1.973,1.973,0,0,1,.461,1.369v.15a.168.168,0,0,1-.05.122.174.174,0,0,1-.128.05h-2.369v.057a1.1,1.1,0,0,0,.218.66.67.67,0,0,0,.56.26.806.806,0,0,0,.663-.328.394.394,0,0,1,.1-.1.3.3,0,0,1,.121-.018h.628a.177.177,0,0,1,.111.035.122.122,0,0,1,.046.1.667.667,0,0,1-.2.4,1.692,1.692,0,0,1-.582.4,2.106,2.106,0,0,1-.877.171A1.73,1.73,0,0,1,334.689,197.1Zm2.043-1.8v-.014a1.024,1.024,0,0,0-.21-.674.708.708,0,0,0-.574-.253.7.7,0,0,0-.571.253,1.036,1.036,0,0,0-.207.674v.014Z" transform="translate(-221.986 -192.205)" fill="#114c67"></path><path id="Tracé_4150" data-name="Tracé 4150" d="M342.543,197.391a1.429,1.429,0,0,1-.538-.382.641.641,0,0,1-.175-.375.146.146,0,0,1,.046-.114.157.157,0,0,1,.11-.043h.586a.126.126,0,0,1,.1.058c.024.019.077.064.16.136a.947.947,0,0,0,.286.168.99.99,0,0,0,.353.061.871.871,0,0,0,.464-.111.354.354,0,0,0,.178-.317.329.329,0,0,0-.082-.232.748.748,0,0,0-.292-.164,5.707,5.707,0,0,0-.632-.168,1.909,1.909,0,0,1-.9-.392.9.9,0,0,1-.289-.7.949.949,0,0,1,.171-.539,1.235,1.235,0,0,1,.511-.414,1.873,1.873,0,0,1,.81-.16,2.053,2.053,0,0,1,.834.153,1.444,1.444,0,0,1,.532.367.622.622,0,0,1,.181.378.158.158,0,0,1-.156.157h-.536a.143.143,0,0,1-.121-.057c-.033-.024-.086-.068-.16-.132a.92.92,0,0,0-.246-.153.847.847,0,0,0-.328-.057.641.641,0,0,0-.407.114.367.367,0,0,0-.143.3.334.334,0,0,0,.068.214.63.63,0,0,0,.275.161,4.345,4.345,0,0,0,.621.153q1.285.25,1.284,1.12a.965.965,0,0,1-.439.82,2.072,2.072,0,0,1-1.223.314A2.2,2.2,0,0,1,342.543,197.391Z" transform="translate(-225.086 -192.205)" fill="#114c67"></path><path id="Tracé_4151" data-name="Tracé 4151" d="M349.581,197.1a1.817,1.817,0,0,1-.5-1.3l-.008-.178a2.013,2.013,0,0,1,.467-1.405,1.907,1.907,0,0,1,2.6,0,1.975,1.975,0,0,1,.46,1.369v.15a.166.166,0,0,1-.05.122.173.173,0,0,1-.128.05h-2.368v.057a1.107,1.107,0,0,0,.218.66.672.672,0,0,0,.561.26.806.806,0,0,0,.663-.328.387.387,0,0,1,.1-.1.294.294,0,0,1,.121-.018h.628a.175.175,0,0,1,.11.035.12.12,0,0,1,.046.1.664.664,0,0,1-.2.4,1.684,1.684,0,0,1-.581.4,2.109,2.109,0,0,1-.877.171A1.729,1.729,0,0,1,349.581,197.1Zm2.043-1.8v-.014a1.021,1.021,0,0,0-.21-.674.707.707,0,0,0-.574-.253.7.7,0,0,0-.571.253,1.033,1.033,0,0,0-.207.674v.014Z" transform="translate(-228.025 -192.205)" fill="#114c67"></path><path id="Tracé_4152" data-name="Tracé 4152" d="M357.314,197.409a1.212,1.212,0,0,1-.478-.4.969.969,0,0,1,.218-1.334,2.352,2.352,0,0,1,1.077-.407l.977-.143v-.15a.628.628,0,0,0-.157-.464.683.683,0,0,0-.5-.157.73.73,0,0,0-.379.086,1.2,1.2,0,0,0-.232.175l-.118.118a.108.108,0,0,1-.107.086h-.556a.157.157,0,0,1-.111-.043.148.148,0,0,1-.046-.114.75.75,0,0,1,.175-.4,1.356,1.356,0,0,1,.517-.392,1.988,1.988,0,0,1,.863-.168,1.7,1.7,0,0,1,1.227.378,1.327,1.327,0,0,1,.385.992v2.24a.172.172,0,0,1-.046.121.162.162,0,0,1-.125.05h-.592a.17.17,0,0,1-.171-.171v-.278a1.17,1.17,0,0,1-.442.375,1.555,1.555,0,0,1-.713.146A1.515,1.515,0,0,1,357.314,197.409Zm1.552-.8a1.022,1.022,0,0,0,.25-.742v-.143l-.713.114q-.82.128-.82.549a.4.4,0,0,0,.189.353.8.8,0,0,0,.453.125A.856.856,0,0,0,358.865,196.614Z" transform="translate(-231.1 -192.205)" fill="#114c67"></path><path id="Tracé_4153" data-name="Tracé 4153" d="M364.763,197.483a.165.165,0,0,1-.05-.121V194a.173.173,0,0,1,.05-.128.164.164,0,0,1,.121-.05h.585a.171.171,0,0,1,.178.178v.293a1.209,1.209,0,0,1,1.027-.471h.3a.169.169,0,0,1,.125.046.166.166,0,0,1,.046.125v.521a.169.169,0,0,1-.046.121.164.164,0,0,1-.125.05h-.563a.666.666,0,0,0-.721.721v1.955a.163.163,0,0,1-.05.121.165.165,0,0,1-.121.05h-.635A.164.164,0,0,1,364.763,197.483Z" transform="translate(-234.365 -192.254)" fill="#114c67"></path><path id="Tracé_4154" data-name="Tracé 4154" d="M370.688,197.12a1.655,1.655,0,0,1-.5-1.206l-.007-.285.007-.285a1.656,1.656,0,0,1,.5-1.206,1.764,1.764,0,0,1,1.252-.435,2.074,2.074,0,0,1,.952.2,1.484,1.484,0,0,1,.578.489,1.129,1.129,0,0,1,.2.552.14.14,0,0,1-.046.122.177.177,0,0,1-.125.05h-.635a.166.166,0,0,1-.113-.032.326.326,0,0,1-.072-.118.836.836,0,0,0-.282-.393.769.769,0,0,0-.446-.121.721.721,0,0,0-.567.228,1.079,1.079,0,0,0-.218.7l-.007.264.007.235q.043.927.785.927a.782.782,0,0,0,.45-.118.825.825,0,0,0,.278-.4.284.284,0,0,1,.068-.114.17.17,0,0,1,.118-.036h.635a.177.177,0,0,1,.125.05.139.139,0,0,1,.046.121,1.134,1.134,0,0,1-.2.539,1.5,1.5,0,0,1-.571.5,2.019,2.019,0,0,1-.963.207A1.764,1.764,0,0,1,370.688,197.12Z" transform="translate(-236.584 -192.205)" fill="#114c67"></path><path id="Tracé_4155" data-name="Tracé 4155" d="M378.142,196.558a.167.167,0,0,1-.05-.121v-4.723a.166.166,0,0,1,.05-.125.175.175,0,0,1,.122-.046h.649a.159.159,0,0,1,.171.171v1.627a1.419,1.419,0,0,1,1.149-.514,1.35,1.35,0,0,1,1.049.432,1.681,1.681,0,0,1,.392,1.173v2a.174.174,0,0,1-.046.121.162.162,0,0,1-.125.05h-.649a.174.174,0,0,1-.128-.05.165.165,0,0,1-.05-.121v-1.962a.944.944,0,0,0-.2-.646.73.73,0,0,0-.581-.232.767.767,0,0,0-.586.236.9.9,0,0,0-.221.642v1.962a.169.169,0,0,1-.046.121.161.161,0,0,1-.125.05h-.649A.166.166,0,0,1,378.142,196.558Z" transform="translate(-239.791 -191.329)" fill="#114c67"></path><path id="Tracé_4156" data-name="Tracé 4156" d="M390.131,196.606a.165.165,0,0,1-.05-.121v-4.651a.162.162,0,0,1,.05-.125.172.172,0,0,1,.121-.047h.685a.161.161,0,0,1,.171.172v4.651a.172.172,0,0,1-.046.121.162.162,0,0,1-.125.05h-.685A.165.165,0,0,1,390.131,196.606Z" transform="translate(-244.653 -191.377)" fill="#114c67"></path><path id="Tracé_4157" data-name="Tracé 4157" d="M394.367,197.434a.165.165,0,0,1-.05-.121v-3.367a.162.162,0,0,1,.05-.125.172.172,0,0,1,.121-.046h.592a.16.16,0,0,1,.171.171v.293a1.453,1.453,0,0,1,1.191-.535,1.33,1.33,0,0,1,1.041.428,1.7,1.7,0,0,1,.385,1.177v2a.172.172,0,0,1-.046.121.162.162,0,0,1-.124.05h-.643a.171.171,0,0,1-.171-.171v-1.962a.947.947,0,0,0-.2-.646.732.732,0,0,0-.581-.232.765.765,0,0,0-.585.236.9.9,0,0,0-.221.642v1.962a.172.172,0,0,1-.046.121.162.162,0,0,1-.124.05h-.635A.165.165,0,0,1,394.367,197.434Z" transform="translate(-246.37 -192.205)" fill="#114c67"></path><path id="Tracé_4158" data-name="Tracé 4158" d="M402.962,197.391a1.429,1.429,0,0,1-.538-.382.641.641,0,0,1-.175-.375.146.146,0,0,1,.046-.114.157.157,0,0,1,.11-.043h.586a.126.126,0,0,1,.1.058c.024.019.077.064.16.136a.947.947,0,0,0,.286.168.989.989,0,0,0,.352.061.872.872,0,0,0,.464-.111.354.354,0,0,0,.178-.317.329.329,0,0,0-.082-.232.747.747,0,0,0-.292-.164,5.711,5.711,0,0,0-.632-.168,1.906,1.906,0,0,1-.9-.392.9.9,0,0,1-.289-.7.95.95,0,0,1,.171-.539,1.237,1.237,0,0,1,.51-.414,1.878,1.878,0,0,1,.81-.16,2.055,2.055,0,0,1,.834.153,1.445,1.445,0,0,1,.532.367.622.622,0,0,1,.181.378.158.158,0,0,1-.156.157h-.536a.143.143,0,0,1-.121-.057c-.033-.024-.086-.068-.16-.132a.919.919,0,0,0-.246-.153.847.847,0,0,0-.328-.057.641.641,0,0,0-.407.114.367.367,0,0,0-.143.3.334.334,0,0,0,.068.214.63.63,0,0,0,.275.161,4.348,4.348,0,0,0,.621.153q1.285.25,1.284,1.12a.965.965,0,0,1-.439.82,2.072,2.072,0,0,1-1.223.314A2.2,2.2,0,0,1,402.962,197.391Z" transform="translate(-249.587 -192.205)" fill="#114c67"></path><path id="Tracé_4159" data-name="Tracé 4159" d="M410.212,196.269a1.376,1.376,0,0,1-.329-1v-1.612h-.563a.165.165,0,0,1-.121-.05.163.163,0,0,1-.05-.121v-.421a.163.163,0,0,1,.05-.121.165.165,0,0,1,.121-.05h.563v-1.185a.166.166,0,0,1,.05-.125.175.175,0,0,1,.122-.046h.592a.171.171,0,0,1,.125.046.173.173,0,0,1,.046.125V192.9h.892a.171.171,0,0,1,.171.171v.421a.171.171,0,0,1-.171.171h-.892V195.2a.826.826,0,0,0,.106.464.394.394,0,0,0,.35.157h.5a.16.16,0,0,1,.171.171v.449a.172.172,0,0,1-.046.121.163.163,0,0,1-.125.05h-.585A1.3,1.3,0,0,1,410.212,196.269Z" transform="translate(-252.385 -191.329)" fill="#114c67"></path><path id="Tracé_4160" data-name="Tracé 4160" d="M415.7,192.159a.163.163,0,0,1-.05-.121v-.521a.172.172,0,0,1,.05-.128.165.165,0,0,1,.121-.05h.656a.171.171,0,0,1,.178.178v.521a.159.159,0,0,1-.053.121.177.177,0,0,1-.125.05h-.656A.165.165,0,0,1,415.7,192.159Zm.029,4.316a.165.165,0,0,1-.05-.121v-3.367a.162.162,0,0,1,.05-.125.171.171,0,0,1,.121-.046h.606a.17.17,0,0,1,.172.171v3.367a.17.17,0,0,1-.172.171h-.606A.164.164,0,0,1,415.731,196.475Z" transform="translate(-255.022 -191.246)" fill="#114c67"></path><path id="Tracé_4161" data-name="Tracé 4161" d="M420.124,196.269a1.376,1.376,0,0,1-.328-1v-1.612h-.564a.17.17,0,0,1-.171-.171v-.421a.17.17,0,0,1,.171-.171h.564v-1.185a.164.164,0,0,1,.05-.125.174.174,0,0,1,.121-.046h.592a.171.171,0,0,1,.125.046.173.173,0,0,1,.046.125V192.9h.892a.17.17,0,0,1,.171.171v.421a.17.17,0,0,1-.171.171h-.892V195.2a.821.821,0,0,0,.107.464.392.392,0,0,0,.349.157h.5a.16.16,0,0,1,.171.171v.449a.172.172,0,0,1-.046.121.163.163,0,0,1-.125.05H421.1A1.3,1.3,0,0,1,420.124,196.269Z" transform="translate(-256.405 -191.329)" fill="#114c67"></path><path id="Tracé_4162" data-name="Tracé 4162" d="M425.93,197.176a1.716,1.716,0,0,1-.378-1.177v-2a.162.162,0,0,1,.05-.125.171.171,0,0,1,.121-.046h.642a.17.17,0,0,1,.171.171v1.962q0,.877.763.877a.762.762,0,0,0,.589-.235.909.909,0,0,0,.218-.642v-1.962a.162.162,0,0,1,.05-.125.172.172,0,0,1,.121-.046h.635a.169.169,0,0,1,.125.046.171.171,0,0,1,.046.125v3.367a.174.174,0,0,1-.046.121.162.162,0,0,1-.125.05h-.592a.17.17,0,0,1-.171-.171v-.292a1.373,1.373,0,0,1-1.184.535A1.309,1.309,0,0,1,425.93,197.176Z" transform="translate(-259.037 -192.254)" fill="#114c67"></path><path id="Tracé_4163" data-name="Tracé 4163" d="M434.32,196.269a1.373,1.373,0,0,1-.329-1v-1.612h-.563a.166.166,0,0,1-.122-.05.165.165,0,0,1-.049-.121v-.421a.165.165,0,0,1,.049-.121.166.166,0,0,1,.122-.05h.563v-1.185a.164.164,0,0,1,.05-.125.174.174,0,0,1,.121-.046h.592a.159.159,0,0,1,.171.171V192.9h.892a.17.17,0,0,1,.171.171v.421a.17.17,0,0,1-.171.171h-.892V195.2a.825.825,0,0,0,.107.464.392.392,0,0,0,.35.157h.5a.161.161,0,0,1,.171.171v.449a.172.172,0,0,1-.047.121.161.161,0,0,1-.124.05H435.3A1.3,1.3,0,0,1,434.32,196.269Z" transform="translate(-262.161 -191.329)" fill="#114c67"></path><path id="Tracé_4164" data-name="Tracé 4164" d="M440,196.606a.165.165,0,0,1-.05-.121v-4.644a.184.184,0,0,1,.046-.129.165.165,0,0,1,.125-.05h3.146a.171.171,0,0,1,.179.179v.478a.164.164,0,0,1-.05.125.184.184,0,0,1-.129.046h-2.34v1.248h2.183a.171.171,0,0,1,.178.178v.45a.162.162,0,0,1-.05.125.181.181,0,0,1-.128.046h-2.183v1.292h2.4a.183.183,0,0,1,.128.046.163.163,0,0,1,.05.125v.485a.162.162,0,0,1-.05.125.181.181,0,0,1-.128.046h-3.2A.165.165,0,0,1,440,196.606Z" transform="translate(-264.876 -191.377)" fill="#114c67"></path></g><g id="Groupe_1577" data-name="Groupe 1577" transform="translate(0.07)"><path id="Tracé_4165" data-name="Tracé 4165" d="M145.822,148.62a.921.921,0,0,1-.255-.68V120.093a1,1,0,0,1,.255-.7.881.881,0,0,1,.68-.276h10.331A10.546,10.546,0,0,1,164,121.39a9.45,9.45,0,0,1,0,13.052,10.545,10.545,0,0,1-7.163,2.274h-8.587V147.94a.883.883,0,0,1-.277.68.994.994,0,0,1-.7.255H146.5A.919.919,0,0,1,145.822,148.62Zm10.8-14.455a8.148,8.148,0,0,0,5.485-1.594,6.841,6.841,0,0,0,0-9.31,8.148,8.148,0,0,0-5.485-1.594h-8.374v12.5Z" transform="translate(-145.567 -114.29)" fill="#114c67"></path><path id="Tracé_4166" data-name="Tracé 4166" d="M192.518,148.62a.921.921,0,0,1-.255-.68V120.093a1,1,0,0,1,.255-.7.88.88,0,0,1,.68-.276H203.1a10.876,10.876,0,0,1,7.186,2.168q2.592,2.17,2.593,6.42a8.389,8.389,0,0,1-1.658,5.42,8.285,8.285,0,0,1-4.761,2.785l6.844,11.649a1.059,1.059,0,0,1,.127.468.872.872,0,0,1-.85.85h-.51a1.424,1.424,0,0,1-.957-.276,3.366,3.366,0,0,1-.659-.872L203.7,136.291h-8.757V147.94a.885.885,0,0,1-.277.68,1,1,0,0,1-.7.255H193.2A.918.918,0,0,1,192.518,148.62Zm10.374-14.88q3.7,0,5.5-1.509a6.576,6.576,0,0,0,0-9.056q-1.808-1.509-5.5-1.509h-7.95V133.74Z" transform="translate(-164.503 -114.29)" fill="#114c67"></path><path id="Tracé_4167" data-name="Tracé 4167" d="M240.077,150.494a.925.925,0,0,1-.255-.681v-37.88a.879.879,0,0,1,.936-.936h6.419a.879.879,0,0,1,.936.936v.6a.877.877,0,0,1-.936.935h-4.761v34.819h4.761a.878.878,0,0,1,.936.935v.6a.878.878,0,0,1-.936.936h-6.419A.921.921,0,0,1,240.077,150.494Z" transform="translate(-183.789 -110.998)" fill="#16b8ec"></path><path id="Tracé_4168" data-name="Tracé 4168" d="M256.882,148.508a.712.712,0,0,1-.223-.521l.074-.409,9.225-24.068a1.158,1.158,0,0,1,1.19-.819h2.381a1.159,1.159,0,0,1,1.191.819l9.226,24.068.074.409a.687.687,0,0,1-.242.521.777.777,0,0,1-.54.224h-1.748a.915.915,0,0,1-.613-.2.97.97,0,0,1-.316-.428l-2.084-5.357H262.164l-2.046,5.357a.977.977,0,0,1-.93.633H257.4A.711.711,0,0,1,256.882,148.508Zm6.362-8.853h10.192l-5.1-13.355Z" transform="translate(-190.617 -115.74)" fill="#16b8ec"></path><path id="Tracé_4169" data-name="Tracé 4169" d="M305.441,148.489a.868.868,0,0,1-.224-.614V123.547a.87.87,0,0,1,.224-.614.771.771,0,0,1,.6-.242h1.86a.778.778,0,0,1,.855.856v24.328a.828.828,0,0,1-.855.856h-1.86A.767.767,0,0,1,305.441,148.489Z" transform="translate(-210.308 -115.74)" fill="#16b8ec"></path><path id="Tracé_4170" data-name="Tracé 4170" d="M318.2,150.494a.922.922,0,0,1-.255-.681v-.6a.878.878,0,0,1,.936-.935h4.761V113.464h-4.761a.877.877,0,0,1-.936-.935v-.6a.878.878,0,0,1,.936-.936h6.42a.879.879,0,0,1,.935.936v37.88a.878.878,0,0,1-.935.936h-6.42A.919.919,0,0,1,318.2,150.494Z" transform="translate(-215.472 -110.998)" fill="#16b8ec"></path><path id="Tracé_4171" data-name="Tracé 4171" d="M346.312,148.62a.919.919,0,0,1-.256-.68V120.093a.994.994,0,0,1,.256-.7.878.878,0,0,1,.679-.276H356.9a10.874,10.874,0,0,1,7.185,2.168q2.593,2.17,2.593,6.42a8.389,8.389,0,0,1-1.658,5.42,8.283,8.283,0,0,1-4.761,2.785l6.845,11.649a1.067,1.067,0,0,1,.127.468.872.872,0,0,1-.85.85h-.511a1.423,1.423,0,0,1-.956-.276,3.352,3.352,0,0,1-.659-.872l-6.759-11.436h-8.758V147.94a.883.883,0,0,1-.277.68.993.993,0,0,1-.7.255h-.766A.916.916,0,0,1,346.312,148.62Zm10.373-14.88q3.7,0,5.505-1.509a6.576,6.576,0,0,0,0-9.056q-1.808-1.509-5.505-1.509h-7.95V133.74Z" transform="translate(-226.869 -114.29)" fill="#114c67"></path><path id="Tracé_4172" data-name="Tracé 4172" d="M394.941,148.62a.921.921,0,0,1-.255-.68V120.051a.878.878,0,0,1,.935-.936h.808a.878.878,0,0,1,.936.936V147.94a.878.878,0,0,1-.936.935h-.808A.918.918,0,0,1,394.941,148.62Z" transform="translate(-246.59 -114.29)" fill="#114c67"></path><path id="Tracé_4173" data-name="Tracé 4173" d="M415.752,148.62a.921.921,0,0,1-.255-.68V120.093a1,1,0,0,1,.255-.7.881.881,0,0,1,.68-.276h16.581a.888.888,0,0,1,.978.978v.638a.883.883,0,0,1-.276.681,1,1,0,0,1-.7.255H418.176v10.841h13.9a.888.888,0,0,1,.977.977v.638a.88.88,0,0,1-.276.679.992.992,0,0,1-.7.256h-13.9v11.267h15.177a.888.888,0,0,1,.978.977v.638a.882.882,0,0,1-.276.68,1,1,0,0,1-.7.255H416.432A.919.919,0,0,1,415.752,148.62Z" transform="translate(-255.029 -114.29)" fill="#114c67"></path></g></g></g></svg> 